<svg width="256" height="64" viewBox="0 0 256 64" fill="none" xmlns="http://www.w3.org/2000/svg">
  <g transform="translate(0 0)">
    <rect x="16" y="34" width="24" height="14" rx="4" fill="#F6D8FF" stroke="#2F2A6D" stroke-width="3"/>
    <rect x="38" y="28" width="14" height="12" rx="4" fill="#F6D8FF" stroke="#2F2A6D" stroke-width="3"/>
    <path d="M40 25L44 18L48 25" stroke="#2F2A6D" stroke-width="3" stroke-linecap="round" stroke-linejoin="round"/>
    <path d="M22 46V56M34 46V56M46 46V54" stroke="#2F2A6D" stroke-width="3" stroke-linecap="round"/>
    <path d="M16 38C8 38 8 28 16 28" stroke="#2F2A6D" stroke-width="3" stroke-linecap="round"/>
    <circle cx="42" cy="33" r="1.5" fill="#2F2A6D"/>
  </g>
  <g transform="translate(64 0)">
    <rect x="16" y="34" width="24" height="14" rx="4" fill="#F6D8FF" stroke="#2F2A6D" stroke-width="3"/>
    <rect x="38" y="28" width="14" height="12" rx="4" fill="#F6D8FF" stroke="#2F2A6D" stroke-width="3"/>
    <path d="M40 25L44 18L48 25" stroke="#2F2A6D" stroke-width="3" stroke-linecap="round" stroke-linejoin="round"/>
    <path d="M20 46V55M32 46V54M46 46V56" stroke="#2F2A6D" stroke-width="3" stroke-linecap="round"/>
    <path d="M16 38C8 38 8 28 16 28" stroke="#2F2A6D" stroke-width="3" stroke-linecap="round"/>
    <circle cx="42" cy="33" r="1.5" fill="#2F2A6D"/>
  </g>
  <g transform="translate(128 0)">
    <rect x="16" y="34" width="24" height="14" rx="4" fill="#F6D8FF" stroke="#2F2A6D" stroke-width="3"/>
    <rect x="38" y="28" width="14" height="12" rx="4" fill="#F6D8FF" stroke="#2F2A6D" stroke-width="3"/>
    <path d="M40 25L44 18L48 25" stroke="#2F2A6D" stroke-width="3" stroke-linecap="round" stroke-linejoin="round"/>
    <path d="M22 46V56M34 46V56M48 46V54" stroke="#2F2A6D" stroke-width="3" stroke-linecap="round"/>
    <path d="M16 38C8 38 8 28 16 28" stroke="#2F2A6D" stroke-width="3" stroke-linecap="round"/>
    <circle cx="42" cy="33" r="1.5" fill="#2F2A6D"/>
  </g>
  <g transform="translate(192 0)">
    <rect x="16" y="34" width="24" height="14" rx="4" fill="#F6D8FF" stroke="#2F2A6D" stroke-width="3"/>
    <rect x="38" y="28" width="14" height="12" rx="4" fill="#F6D8FF" stroke="#2F2A6D" stroke-width="3"/>
    <path d="M40 25L44 18L48 25" stroke="#2F2A6D" stroke-width="3" stroke-linecap="round" stroke-linejoin="round"/>
    <path d="M20 46V55M34 46V54M46 46V56" stroke="#2F2A6D" stroke-width="3" stroke-linecap="round"/>
    <path d="M16 38C8 38 8 28 16 28" stroke="#2F2A6D" stroke-width="3" stroke-linecap="round"/>
    <circle cx="42" cy="33" r="1.5" fill="#2F2A6D"/>
  </g>
</svg>
